# xmcd
#
# Track frame offsets:
#	150
#	12135
#	18957
#	31490
#	41195
#	48652
#	65092
#	72767
#	82830
#	90015
#	98852
#	106254
#
# Disc length: 1553 seconds
#
# Revision: 0
# Processed by: cddbd v1.4PL0 Copyright (c) Steve Scherf et al.
# Submitted via: dBpowerAMP V4.0
#
DISCID=8c060f0c
DTITLE=Various Artist - It's Country
DYEAR=1900
DGENRE=Country
TTITLE0=Wreck of the Tennessee
TTITLE1=Sally Goodin
TTITLE2=No Depression
TTITLE3=Cotton Fields
TTITLE4=Bringing in the Georgia Mail
TTITLE5=Banks of the Ohio
TTITLE6=Little Maggie
TTITLE7=I'am a Pilgrim
TTITLE8=Oh Susannah
TTITLE9=Serves Them Fine
TTITLE10=Shady Grove
TTITLE11=Rollin'my Sweet Baby's Arms
EXTD=
EXTT0=
EXTT1=
EXTT2=
EXTT3=
EXTT4=
EXTT5=
EXTT6=
EXTT7=
EXTT8=
EXTT9=
EXTT10=
EXTT11=
PLAYORDER=
